<svg width="132" height="126" viewBox="0 0 132 126" xmlns="http://www.w3.org/2000/svg"><title>logo 2</title><g fill="none" fill-rule="evenodd"><path d="M88.36 17.683A25.476 25.476 0 0 0 86 28.428C86 42.502 97.37 53.921 111.426 54v34.072a12 12 0 0 1-6 10.392L62 123.536a12 12 0 0 1-12 0L6.574 98.464a12 12 0 0 1-6-10.392V37.928a12 12 0 0 1 6-10.392L50 2.464a12 12 0 0 1 12 0l26.36 15.22zM32 41a3 3 0 0 0-3 3v1.213a3 3 0 0 0 3 3h49a3 3 0 0 0 3-3V44a3 3 0 0 0-3-3H32zm0 17.934a3 3 0 0 0-3 3v1.214a3 3 0 0 0 3 3h35.475a3 3 0 0 0 3-3v-1.214a3 3 0 0 0-3-3H32zm0 17.935a3 3 0 0 0-3 3v1.213a3 3 0 0 0 3 3h49a3 3 0 0 0 3-3v-1.213a3 3 0 0 0-3-3H32z" fill="#FFF"/><g fill="#FFF"><path d="M111.5 50C100.178 50 91 40.822 91 29.5S100.178 9 111.5 9 132 18.178 132 29.5 122.822 50 111.5 50zm3.352-14.475H117v-3.227h-2.17V22h-4.452L104 32.18v3.345h7.375V38.8h3.477v-3.275z"/><path d="M111.397 26.081h-.067l-3.72 6.217h3.787z"/></g></g></svg>